<svg width="1200" height="630" viewBox="0 0 1200 630" fill="none" xmlns="http://www.w3.org/2000/svg">
  <defs>
    <linearGradient id="line-a" x1="244" y1="132" x2="1028" y2="148" gradientUnits="userSpaceOnUse">
      <stop stop-color="#1E3A5F"/>
      <stop offset="1" stop-color="#315889"/>
    </linearGradient>
    <linearGradient id="line-b" x1="214" y1="214" x2="1042" y2="226" gradientUnits="userSpaceOnUse">
      <stop stop-color="#2563EB"/>
      <stop offset="1" stop-color="#3B82F6"/>
    </linearGradient>
    <linearGradient id="line-c" x1="188" y1="298" x2="1076" y2="320" gradientUnits="userSpaceOnUse">
      <stop stop-color="#2563EB"/>
      <stop offset="1" stop-color="#60A5FA"/>
    </linearGradient>
  </defs>

  <rect width="1200" height="630" fill="#0B1120"/>
  <circle cx="930" cy="520" r="280" fill="#1D4ED8" fill-opacity="0.08"/>
  <circle cx="280" cy="120" r="220" fill="#3B82F6" fill-opacity="0.06"/>

  <path d="M265 158C352 194 454 193 569 167C709 135 839 135 1088 162" stroke="url(#line-a)" stroke-width="14" stroke-linecap="round"/>
  <path d="M227 244C334 295 458 294 605 250C769 201 911 200 1108 242" stroke="url(#line-b)" stroke-width="20" stroke-linecap="round"/>
  <path d="M195 328C325 403 477 403 653 336C832 270 978 270 1137 325" stroke="url(#line-c)" stroke-width="24" stroke-linecap="round"/>

  <text x="226" y="470" fill="#F8FAFC" font-family="Inter, Arial, sans-serif" font-size="104" font-weight="800" letter-spacing="-4">Tooly</text>
  <text x="522" y="470" fill="#3B82F6" font-family="Inter, Arial, sans-serif" font-size="104" font-weight="800" letter-spacing="-4">flow</text>
  <text x="360" y="548" fill="#64748B" font-family="Inter, Arial, sans-serif" font-size="42" font-weight="500" letter-spacing="-0.6">Tek platform, her araç</text>
</svg>
