<svg width="96" height="96" viewBox="0 0 96 96" fill="none" xmlns="http://www.w3.org/2000/svg">
  <defs>
    <linearGradient id="panel" x1="16" y1="12" x2="84" y2="88" gradientUnits="userSpaceOnUse">
      <stop stop-color="#151723"/>
      <stop offset="1" stop-color="#0A0A0F"/>
    </linearGradient>
    <linearGradient id="border" x1="20" y1="16" x2="82" y2="84" gradientUnits="userSpaceOnUse">
      <stop stop-color="#7C3AED" stop-opacity="0.85"/>
      <stop offset="1" stop-color="#06B6D4" stop-opacity="0.65"/>
    </linearGradient>
    <linearGradient id="accent" x1="48" y1="20" x2="74" y2="70" gradientUnits="userSpaceOnUse">
      <stop stop-color="#A855F7"/>
      <stop offset="1" stop-color="#06B6D4"/>
    </linearGradient>
    <radialGradient id="glow" cx="0" cy="0" r="1" gradientUnits="userSpaceOnUse" gradientTransform="translate(28 22) rotate(51.8) scale(38 34)">
      <stop stop-color="#7C3AED" stop-opacity="0.36"/>
      <stop offset="1" stop-color="#7C3AED" stop-opacity="0"/>
    </radialGradient>
  </defs>

  <rect x="8" y="8" width="80" height="80" rx="24" fill="url(#panel)"/>
  <rect x="8.5" y="8.5" width="79" height="79" rx="23.5" stroke="#232334"/>
  <rect x="11" y="11" width="74" height="74" rx="21" stroke="url(#border)" stroke-opacity="0.34"/>
  <circle cx="28" cy="24" r="24" fill="url(#glow)"/>

  <rect x="18" y="23" width="34" height="10" rx="5" fill="#F8FAFC"/>
  <rect x="30" y="23" width="10" height="44" rx="5" fill="#F8FAFC"/>

  <rect x="52" y="23" width="10" height="44" rx="5" fill="url(#accent)"/>
  <rect x="52" y="23" width="24" height="10" rx="5" fill="url(#accent)"/>
  <rect x="52" y="41" width="19" height="10" rx="5" fill="url(#accent)"/>

  <circle cx="71" cy="67" r="4" fill="#06B6D4" fill-opacity="0.9"/>
</svg>
