<svg width="1200" height="630" viewBox="0 0 1200 630" fill="none" xmlns="http://www.w3.org/2000/svg">
  <defs>
    <linearGradient id="panel" x1="112" y1="92" x2="1088" y2="560" gradientUnits="userSpaceOnUse">
      <stop stop-color="#151723"/>
      <stop offset="1" stop-color="#0A0A0F"/>
    </linearGradient>
    <linearGradient id="accent" x1="256" y1="148" x2="404" y2="388" gradientUnits="userSpaceOnUse">
      <stop stop-color="#A855F7"/>
      <stop offset="1" stop-color="#06B6D4"/>
    </linearGradient>
    <linearGradient id="title" x1="470" y1="190" x2="835" y2="350" gradientUnits="userSpaceOnUse">
      <stop stop-color="#A855F7"/>
      <stop offset="1" stop-color="#06B6D4"/>
    </linearGradient>
    <linearGradient id="frame" x1="142" y1="120" x2="420" y2="408" gradientUnits="userSpaceOnUse">
      <stop stop-color="#7C3AED" stop-opacity="0.9"/>
      <stop offset="1" stop-color="#06B6D4" stop-opacity="0.75"/>
    </linearGradient>
    <radialGradient id="glow" cx="0" cy="0" r="1" gradientUnits="userSpaceOnUse" gradientTransform="translate(210 170) rotate(52) scale(132 118)">
      <stop stop-color="#7C3AED" stop-opacity="0.3"/>
      <stop offset="1" stop-color="#7C3AED" stop-opacity="0"/>
    </radialGradient>
  </defs>

  <rect width="1200" height="630" fill="#0A0A0F"/>
  <circle cx="986" cy="562" r="276" fill="#06B6D4" fill-opacity="0.07"/>
  <circle cx="160" cy="54" r="252" fill="#7C3AED" fill-opacity="0.14"/>
  <rect x="72" y="72" width="1056" height="486" rx="40" fill="url(#panel)"/>
  <rect x="72.5" y="72.5" width="1055" height="485" rx="39.5" stroke="#232334"/>

  <g>
    <rect x="132" y="132" width="256" height="256" rx="64" fill="#0F1118"/>
    <rect x="132.5" y="132.5" width="255" height="255" rx="63.5" stroke="#232334"/>
    <rect x="144" y="144" width="232" height="232" rx="56" stroke="url(#frame)" stroke-opacity="0.3"/>
    <circle cx="210" cy="178" r="82" fill="url(#glow)"/>

    <rect x="176" y="182" width="100" height="28" rx="14" fill="#F8FAFC"/>
    <rect x="212" y="182" width="28" height="130" rx="14" fill="#F8FAFC"/>

    <rect x="284" y="182" width="28" height="130" rx="14" fill="url(#accent)"/>
    <rect x="284" y="182" width="72" height="28" rx="14" fill="url(#accent)"/>
    <rect x="284" y="236" width="58" height="28" rx="14" fill="url(#accent)"/>

    <circle cx="340" cy="312" r="11" fill="#06B6D4"/>
  </g>

  <text x="458" y="242" fill="url(#title)" font-family="Inter, Arial, sans-serif" font-size="92" font-weight="800" letter-spacing="-3">
    Toolyflow
  </text>
  <text x="458" y="310" fill="#F8FAFC" font-family="Inter, Arial, sans-serif" font-size="32" font-weight="700">
    Creator tools ve hızlı utility iş akışları
  </text>
  <text x="458" y="366" fill="#94A3B8" font-family="Inter, Arial, sans-serif" font-size="26">
    Bio, kullanıcı adı, QR ve metin araçlarını tek yerde hızlıca kullan.
  </text>

  <rect x="458" y="420" width="184" height="54" rx="27" fill="#A855F7" fill-opacity="0.15"/>
  <rect x="660" y="420" width="170" height="54" rx="27" fill="#06B6D4" fill-opacity="0.14"/>
  <text x="495" y="454" fill="#C084FC" font-family="Inter, Arial, sans-serif" font-size="19" font-weight="700" letter-spacing="1.1">
    CREATOR TOOLS
  </text>
  <text x="700" y="454" fill="#67E8F9" font-family="Inter, Arial, sans-serif" font-size="19" font-weight="700" letter-spacing="1.1">
    QUICK TOOLS
  </text>
</svg>
